# xmcd
#
# Track frame offsets:
#  150
#  12300
#  29507
#  46537
#  60047
#  72545
#  90465
#  109700
#  121854
#  136525
#  148447
#  165565
#  174735
#  190995
#
# Disc length: 2712 seconds
#
# Revision: 0
# Processed by: cddbd v1.5.1PL2 Copyright (c) Steve Scherf et al.
# Submitted via: Collectorz.com_Music_Collector 6.9
#
DISCID=b60a960e
DTITLE=Various Artist - The Sound Of Motortown Detroit [CD3]
DYEAR=1900
DGENRE=Soul - Soul - Funk - Slow
TTITLE0=Jackie Wilson - Reet Petite
TTITLE1=Marvin Gaye - I Heard It Through The Grapevine (Live)
TTITLE2=The Supremes - Love Child
TTITLE3=Martha Reeves - The Vandellas - Nowhere To Run
TTITLE4=Jimmy Ruffin - I've Passed This Way Before
TTITLE5=Mary Wells - You Lost The Sweetest Boy
TTITLE6=The Miracles - Love Machine
TTITLE7=Syreeta - With You I'm Born Again
TTITLE8=The Jackson 5 - You've Changed
TTITLE9=The Contours - First I Look At The Purse
TTITLE10=The Supremes - Nathan Jones
TTITLE11=Jackie Wilson - I'll Be Satisfied
TTITLE12=Marvin Gaye - Ain't Nothing Like The Real Thing (Live)
TTITLE13=Mary Wells - Bye Bye Baby
EXTD=
EXTT0=
EXTT1=
EXTT2=
EXTT3=
EXTT4=
EXTT5=
EXTT6=
EXTT7=
EXTT8=
EXTT9=
EXTT10=
EXTT11=
EXTT12=
EXTT13=
PLAYORDER=
